<?xml version="1.0" encoding="utf-8"?>
<!-- Generator: Adobe Illustrator 21.1.0, SVG Export Plug-In . SVG Version: 6.00 Build 0)  -->
<svg version="1.1"
	 id="svg2619" inkscape:export-filename="/home/carlos/Desktop/logo-grey-bg.png" inkscape:export-xdpi="90" inkscape:export-ydpi="90" inkscape:output_extension="org.inkscape.output.svg.inkscape" inkscape:version="0.46" sodipodi:docbase="/Users/carlosporto/Desktop" sodipodi:docname="mint-logo-alone.svg" sodipodi:modified="true" sodipodi:version="0.32" xmlns:cc="http://creativecommons.org/ns#" xmlns:dc="http://purl.org/dc/elements/1.1/" xmlns:inkscape="http://www.inkscape.org/namespaces/inkscape" xmlns:rdf="http://www.w3.org/1999/02/22-rdf-syntax-ns#" xmlns:sodipodi="http://sodipodi.sourceforge.net/DTD/sodipodi-0.dtd" xmlns:svg="http://www.w3.org/2000/svg"
	 xmlns="http://www.w3.org/2000/svg" xmlns:xlink="http://www.w3.org/1999/xlink" x="0px" y="0px" viewBox="0 0 1024 768"
	 style="enable-background:new 0 0 1024 768;" xml:space="preserve">
<style type="text/css">
	.st0{fill:#727171;}
	.st1{fill:#FFFFFF;}
	.st2{fill:url(#SVGID_1_);}
	.st3{fill:url(#SVGID_2_);}
</style>
<defs>
	
	
		<inkscape:perspective  id="perspective277" inkscape:persp3d-origin="512 : 256 : 1" inkscape:vp_x="0 : 384 : 1" inkscape:vp_y="0 : 1000 : 0" inkscape:vp_z="1024 : 384 : 1" sodipodi:type="inkscape:persp3d">
		</inkscape:perspective>
</defs>
<sodipodi:namedview  bordercolor="#666666" borderopacity="1.0" gridtolerance="10000" guidetolerance="10" height="768px" id="base" inkscape:current-layer="layer1" inkscape:cx="434.88273" inkscape:cy="422.55322" inkscape:document-units="px" inkscape:guide-bbox="true" inkscape:pageopacity="1" inkscape:pageshadow="2" inkscape:window-height="1151" inkscape:window-width="1920" inkscape:window-x="0" inkscape:window-y="0" inkscape:zoom="0.71932516" objecttolerance="10" pagecolor="#333333" showgrid="false" showguides="true" width="1024px">
	</sodipodi:namedview>
<g id="Layer_2">
	<g id="레이어_1">
		<path class="st0" d="M646.5,39.5H111.2l-2.9,207.2l5.1,4.4h57.6c34.2,0,61.9,27.7,61.9,61.9v159.1
			c0,146.6,119.3,265.9,265.8,265.9h413.7V305.3C912.4,158.7,793.1,39.5,646.5,39.5z M862.7,688.4h-364
			c-119.3,0-216.3-97-216.3-216.2V313c-0.1-61.6-50-111.4-111.5-111.5h-10.2V89.1h485.8c119.2,0,216.2,97,216.2,216.2V688.4z"/>
		<path class="st0" d="M690.4,248.7c-27.8,0-54.3,11.9-72.7,32.7c-35.7-40.2-97.2-43.9-137.4-8.2c-20.9,18.5-32.8,45.1-32.8,73
			l-2.9,110.7l5.5,4.4h47V346.2c0-26.4,21.4-47.9,47.9-47.9s47.9,21.4,47.9,47.9l-2.9,110.7l4.9,4.4h47.6V346.2
			c0-26.4,21.4-47.9,47.9-47.9c26.4,0,47.9,21.4,47.9,47.9v130.2c-0.1,47.8-38.8,86.6-86.6,86.6H548.5v0.2h-61.6
			c-47.8-0.1-86.6-38.8-86.6-86.7V160.3l-2.9-4.4l-46.7,4.4v316.2c0.1,75.2,61,136.1,136.2,136.2h61.6v-0.1h103.1
			c75.1,0,136.3-61.1,136.3-136.2V334.6h-0.8C781.2,285.7,739.7,248.8,690.4,248.7z"/>
		<path class="st1" d="M637.8,30H102.4v211.6l5.8,5.1l54-5.1c34.2,0,61.9,27.7,61.9,61.9v159.1c0,146.6,119.3,265.9,265.8,265.9
			h413.6V295.8C903.6,149.2,784.3,30,637.8,30z M854,678.9h-364c-119.2,0-216.2-97-216.2-216.2V303.5
			c-0.1-61.6-50-111.4-111.5-111.5H152V79.6h485.8c119.2,0,216.2,97,216.2,216.2L854,678.9z"/>
		<path class="st1" d="M681.6,239.2c-27.8,0-54.3,11.9-72.7,32.7c-35.7-40.2-97.2-43.9-137.4-8.2c-20.9,18.5-32.8,45.1-32.7,73v115
			l5.8,5.1l43.8-5.1v-115c0-26.4,21.4-47.9,47.9-47.9c26.4,0,47.9,21.4,47.9,47.9v115l5.8,5.1l43.8-5.1v-115
			c0-26.4,21.4-47.9,47.9-47.9c26.4,0,47.9,21.4,47.9,47.9v130.2c-0.1,47.8-38.8,86.6-86.6,86.6H539.7v0.1h-61.6
			c-47.8-0.1-86.6-38.8-86.6-86.7l5.8-311.1l-5.8-5.1h-49.7V467c0.1,75.2,61,136.2,136.3,136.3h61.6v-0.1h103.1
			c75.1,0,136.3-61.1,136.3-136.2V325.1h-0.8C772.4,276.2,730.9,239.3,681.6,239.2z"/>
		
			<linearGradient id="SVGID_1_" gradientUnits="userSpaceOnUse" x1="224.4519" y1="710.1157" x2="1301.9452" y2="-308.8216" gradientTransform="matrix(1 0 0 -1 0 768)">
			<stop  offset="0" style="stop-color:#F1F3F8"/>
			<stop  offset="1" style="stop-color:#B6C2C9"/>
		</linearGradient>
		<path class="st2" d="M643.6,35.1H108.2v211.6H168c34.2,0.1,61.9,27.8,61.9,61.9v159.1c0,146.6,119.3,265.9,265.9,265.9h413.7
			V300.9C909.4,154.4,790.2,35.1,643.6,35.1z M859.8,684h-364c-119.2,0-216.2-97-216.2-216.2V308.6c-0.1-61.6-50-111.5-111.5-111.5
			h-10.2V84.7h485.8c119.2,0,216.2,97,216.2,216.2L859.8,684z"/>
		
			<linearGradient id="SVGID_2_" gradientUnits="userSpaceOnUse" x1="207.3948" y1="692.0798" x2="1284.8881" y2="-326.8575" gradientTransform="matrix(1 0 0 -1 0 768)">
			<stop  offset="0" style="stop-color:#F1F3F8"/>
			<stop  offset="1" style="stop-color:#B6C2C9"/>
		</linearGradient>
		<path class="st3" d="M687.4,244.3c-27.8,0-54.3,11.9-72.7,32.7c-35.7-40.2-97.2-43.9-137.4-8.2c-20.9,18.5-32.8,45.1-32.8,73
			v115.1h49.6V341.8c0-26.4,21.4-47.9,47.9-47.9s47.9,21.4,47.9,47.9v115.1h49.6V341.8c0-26.4,21.4-47.9,47.9-47.9
			c26.4,0,47.9,21.4,47.9,47.9V472c-0.1,47.8-38.8,86.6-86.6,86.6H545.6v0.1H484c-47.8-0.1-86.6-38.8-86.6-86.7V155.9h-49.7v316.2
			c0.1,75.2,61,136.2,136.3,136.3h61.6v-0.1h103.1c75.1,0,136.3-61.1,136.3-136.2V330.3h-0.8C778.3,281.3,736.8,244.4,687.4,244.3z"
			/>
	</g>
</g>
</svg>
