<svg xmlns="http://www.w3.org/2000/svg" xmlns:xlink="http://www.w3.org/1999/xlink" viewBox="0 0 736.74 644"><defs><style>.cls-1{fill:#727171;}.cls-2{fill:#fff;}.cls-3{fill:url(#linear-gradient);}.cls-4{fill:url(#linear-gradient-2);}</style><linearGradient id="linear-gradient" x1="111.04" y1="25.38" x2="1091.08" y2="952.16" gradientUnits="userSpaceOnUse"><stop offset="0" stop-color="#f1f3f8"/><stop offset="1" stop-color="#b6c2c9"/></linearGradient><linearGradient id="linear-gradient-2" x1="95.53" y1="41.78" x2="1075.57" y2="968.56" xlink:href="#linear-gradient"/></defs><title>Asset 3</title><g id="Layer_2" data-name="Layer 2"><g id="레이어_1" data-name="레이어 1"><path class="cls-1" d="M494.93,8.64H8L5.32,197.12l4.65,4h52.4a56.39,56.39,0,0,1,56.33,56.33V402.17C118.69,535.5,227.17,644,360.5,644H736.74V250.44C736.74,117.11,628.26,8.64,494.93,8.64ZM691.6,598.85H360.5C252,598.85,163.8,510.61,163.8,402.17V257.43A101.55,101.55,0,0,0,62.37,156H53.1V53.77H494.93C603.37,53.77,691.6,142,691.6,250.44Z"/><path class="cls-1" d="M534.82,198.93a88.4,88.4,0,0,0-66.12,29.78A88.55,88.55,0,0,0,313.9,287.6l-2.66,100.67,5,4h42.78V287.6a43.54,43.54,0,0,1,87.09,0l-2.66,100.67,4.46,4h43.33V287.6a43.55,43.55,0,0,1,87.11,0V406.05a78.9,78.9,0,0,1-78.81,78.8H405.76V485h-56a78.89,78.89,0,0,1-78.79-78.82V118.54l-2.66-4-42.49,4V406.17A124.08,124.08,0,0,0,349.74,530.09h56V530h93.81c68.32,0,123.94-55.61,123.94-123.92V277.11h-.69A88.76,88.76,0,0,0,534.82,198.93Z"/><path class="cls-2" d="M487,0H0V192.47l5.32,4.65,49.08-4.65a56.39,56.39,0,0,1,56.33,56.33V393.53c0,133.33,108.47,241.83,241.8,241.83H728.76V241.8C728.76,108.48,620.29,0,487,0ZM683.63,590.21H352.52c-108.46,0-196.69-88.24-196.69-196.68V248.79A101.55,101.55,0,0,0,54.39,147.36H45.13V45.13H487c108.44,0,196.67,88.23,196.67,196.68Z"/><path class="cls-2" d="M526.84,190.29a88.4,88.4,0,0,0-66.12,29.78A88.55,88.55,0,0,0,305.93,279V383.62l5.32,4.65,39.83-4.65V279a43.54,43.54,0,0,1,87.09,0V383.62l5.32,4.65,39.81-4.65V279a43.55,43.55,0,0,1,87.11,0V397.42a78.9,78.9,0,0,1-78.81,78.8H397.78v.13h-56A78.89,78.89,0,0,1,263,397.53l5.32-283L263,109.9H217.82V397.53A124.08,124.08,0,0,0,341.76,521.46h56v-.12h93.81c68.32,0,123.94-55.61,123.94-123.92V268.47h-.69A88.76,88.76,0,0,0,526.84,190.29Z"/><path class="cls-3" d="M492.27,4.65H5.32V197.12H59.71A56.39,56.39,0,0,1,116,253.45V398.18C116,531.51,224.51,640,357.84,640H734.08V246.46C734.08,113.13,625.6,4.65,492.27,4.65ZM688.95,594.86H357.84c-108.46,0-196.69-88.24-196.69-196.68V253.45A101.55,101.55,0,0,0,59.71,152H50.45V49.78H492.27c108.44,0,196.67,88.23,196.67,196.68Z"/><path class="cls-4" d="M532.16,194.95A88.4,88.4,0,0,0,466,224.73a88.55,88.55,0,0,0-154.8,58.89V388.27h45.15V283.62a43.54,43.54,0,0,1,87.09,0V388.27h45.13V283.62a43.55,43.55,0,0,1,87.11,0V402.07a78.9,78.9,0,0,1-78.81,78.8H403.1V481h-56a78.89,78.89,0,0,1-78.79-78.82V114.55H223.14V402.18A124.08,124.08,0,0,0,347.08,526.11h56V526h93.81c68.32,0,123.94-55.61,123.94-123.92V273.12h-.69A88.76,88.76,0,0,0,532.16,194.95Z"/></g></g></svg>